<svg xmlns="http://www.w3.org/2000/svg" width="14.04" height="9.709" viewBox="0 0 14.04 9.709">
  <path id="Icon_awesome-car-side" data-name="Icon awesome-car-side" d="M11.934,5.718h-.351L9.2,2.771A1.411,1.411,0,0,0,8.1,2.25H3.407a1.4,1.4,0,0,0-1.3.872L1.053,5.767A1.387,1.387,0,0,0,0,7.1V9.532a.349.349,0,0,0,.351.347H1.4a2.106,2.106,0,0,0,4.212,0H8.424a2.106,2.106,0,0,0,4.212,0h1.053a.349.349,0,0,0,.351-.347V7.8A2.093,2.093,0,0,0,11.934,5.718Zm-8.424,5.2a1.04,1.04,0,1,1,1.053-1.04A1.048,1.048,0,0,1,3.51,10.919Zm1.579-5.2H2.565l.842-2.081H5.089Zm1.053,0V3.637H8.1L9.785,5.718Zm4.387,5.2a1.04,1.04,0,1,1,1.053-1.04A1.048,1.048,0,0,1,10.53,10.919Z" transform="translate(0 -2.25)" fill="#929aa5"/>
</svg>
