<svg xmlns="http://www.w3.org/2000/svg" width="8.601" height="8.6" viewBox="0 0 8.601 8.6">
  <path id="Icon_ionic-ios-color-palette" data-name="Icon ionic-ios-color-palette" d="M12.7,10.858a1.046,1.046,0,0,0-.551-.2.82.82,0,0,1-.506-.224.621.621,0,0,1,0-.981l.679-.6a2.18,2.18,0,0,0,0-3.341A4.306,4.306,0,0,0,9.457,4.5,5.414,5.414,0,0,0,5.9,5.846a3.924,3.924,0,0,0,0,6.013A5.243,5.243,0,0,0,9.325,13.1h.038A5.04,5.04,0,0,0,12.7,11.926.756.756,0,0,0,12.7,10.858ZM5.753,7.9a.717.717,0,1,1,.717.717A.716.716,0,0,1,5.753,7.9Zm.9,2.822a.717.717,0,1,1,.717-.717A.716.716,0,0,1,6.649,10.726ZM8.082,7.12A.717.717,0,1,1,8.8,6.4.716.716,0,0,1,8.082,7.12Zm1.613,4.9A1.075,1.075,0,1,1,10.77,10.95,1.075,1.075,0,0,1,9.695,12.025Zm.537-4.658a.717.717,0,1,1,.717-.717A.716.716,0,0,1,10.232,7.367Z" transform="translate(-4.498 -4.5)" fill="#929aa5"/>
</svg>
