<svg xmlns="http://www.w3.org/2000/svg" width="9.709" height="8.631" viewBox="0 0 9.709 8.631">
  <path id="Icon_material-local-gas-station" data-name="Icon material-local-gas-station" d="M15.28,6.528l.006,0L13.1,4.74l-.624.508L13.715,6.26a1.232,1.232,0,0,0-.947,1.117,1.357,1.357,0,0,0,1.471,1.2,1.8,1.8,0,0,0,.588-.1v3.457a.6.6,0,0,1-1.177,0V9.774a1.088,1.088,0,0,0-1.177-.959h-.588V5.459A1.088,1.088,0,0,0,10.708,4.5H7.177A1.088,1.088,0,0,0,6,5.459v7.672h5.885v-3.6h.883v2.4a1.357,1.357,0,0,0,1.471,1.2,1.357,1.357,0,0,0,1.471-1.2V7.377A1.1,1.1,0,0,0,15.28,6.528ZM10.708,7.856H7.177v-2.4h3.531Zm3.531,0a.544.544,0,0,1-.588-.479.6.6,0,0,1,1.177,0A.544.544,0,0,1,14.238,7.856Z" transform="translate(-6 -4.5)" fill="#929aa5"/>
</svg>
