<svg xmlns="http://www.w3.org/2000/svg" width="824.812" height="438.316" viewBox="0 0 824.812 438.316">
  <g id="Group_8994" data-name="Group 8994" transform="translate(0 0)">
    <path id="Path_141" data-name="Path 141" d="M1007.07,668.026H547.8a5.345,5.345,0,0,1-5.338-5.338V236.18a5.345,5.345,0,0,1,5.338-5.338H1007.07a5.345,5.345,0,0,1,5.338,5.338V662.687a5.344,5.344,0,0,1-5.338,5.338ZM547.8,232.973a3.207,3.207,0,0,0-3.2,3.2V662.687a3.207,3.207,0,0,0,3.2,3.2H1007.07a3.206,3.206,0,0,0,3.2-3.2V236.18a3.207,3.207,0,0,0-3.2-3.2Z" transform="translate(-187.596 -230.842)" fill="#e6e6e6"/>
    <path id="Path_142" data-name="Path 142" d="M764.811,341.671a3.624,3.624,0,1,0,0,7.248H963.667a3.624,3.624,0,1,0,0-7.248Z" transform="translate(-187.596 -230.842)" fill="#e6e6e6"/>
    <path id="Path_143" data-name="Path 143" d="M764.811,363.417a3.624,3.624,0,1,0,0,7.248h101.52a3.624,3.624,0,1,0,0-7.248Z" transform="translate(-187.596 -230.842)" fill="#e6e6e6"/>
    <path id="Path_142-2" data-name="Path 142" d="M591,468.671a3.624,3.624,0,1,0,0,7.248H963.86a3.624,3.624,0,0,0,0-7.248Z" transform="translate(-187.596 -230.842)" fill="#e6e6e6"/>
    <path id="Path_143-2" data-name="Path 143" d="M591,490.417a3.624,3.624,0,1,0,0,7.248h275.52a3.624,3.624,0,1,0,0-7.248Z" transform="translate(-187.596 -230.842)" fill="#e6e6e6"/>
    <path id="Path_142-3" data-name="Path 142" d="M591,511.671a3.624,3.624,0,1,0,0,7.248H963.86a3.624,3.624,0,1,0,0-7.248Z" transform="translate(-187.596 -230.842)" fill="#e6e6e6"/>
    <path id="Path_143-3" data-name="Path 143" d="M591,533.417a3.624,3.624,0,1,0,0,7.248h275.52a3.624,3.624,0,0,0,0-7.248Z" transform="translate(-187.596 -230.842)" fill="#e6e6e6"/>
    <path id="Path_154" data-name="Path 154" d="M714.555,418.025H426.287a5.344,5.344,0,0,1-5.338-5.338V286.18a5.344,5.344,0,0,1,5.338-5.338H714.555a5.344,5.344,0,0,1,5.338,5.338V412.687A5.344,5.344,0,0,1,714.555,418.025Z" transform="translate(-187.596 -230.842)" fill="#3d38f1"/>
    <path id="Path_154-2" data-name="Path 154" d="M961.555,618.025H852.287a5.344,5.344,0,0,1-5.338-5.338V595.18a5.344,5.344,0,0,1,5.338-5.338H961.555a5.344,5.344,0,0,1,5.338,5.338v17.507A5.344,5.344,0,0,1,961.555,618.025Z" transform="translate(-187.596 -230.842)" fill="#3d38f1"/>
    <path id="Path_678" data-name="Path 678" d="M314.032,444.951c-4.709-3.515-6.091-10.084-3.087-14.672a9.162,9.162,0,0,1,1.009-1.261l.3-93.46,13.892,2.594.61,91.92c3.165,3.671,3.8,9.022,1.241,12.937C324.994,447.6,318.741,448.466,314.032,444.951Z" transform="translate(-187.596 -230.842)" fill="#ffb8b8"/>
    <path id="Path_679" data-name="Path 679" d="M198.683,423.3h14.322l6.814-55.242H198.681Z" fill="#ffb8b8"/>
    <path id="Path_680" data-name="Path 680" d="M382.626,649.467h28.207a17.975,17.975,0,0,1,17.975,17.973v.585l-46.181,0Z" transform="translate(-187.596 -230.842)" fill="#2f2e41"/>
    <path id="Path_681" data-name="Path 681" d="M65.506,423.3H79.829l6.813-55.242H65.5Z" fill="#ffb8b8"/>
    <path id="Path_682" data-name="Path 682" d="M249.449,649.467h28.207a17.975,17.975,0,0,1,17.975,17.973v.585l-46.18,0Z" transform="translate(-187.596 -230.842)" fill="#2f2e41"/>
    <path id="Path_683" data-name="Path 683" d="M385.443,638.713l-1.2-7.2a5.71,5.71,0,0,1-2.969-2.383c-1.289-2.037-1.494-4.9-.611-8.521L371,539l-50.451-52.344L288.184,564.72l-12.812,61.775v8.925L249.791,638.7l1.164-8.413a4.9,4.9,0,0,1-2.323-2.07c-1.47-2.446-1.45-6.238.06-11.268l.065-.218-.083-.751C248.615,615.459,249,565,264,540l15.023-75.9c-.39-1.069-2.316-7.292,1.216-17.809,3.486-10.378,13.236-27.1,39.887-47.811l.092-.071.114-.024c.3-.061,29.689-5.9,44.891,13.975l.1.134v.169c0,1.229-.026,29.83-2.288,36.176l36.073,66.328c.7.744,7.009,8.027,4.769,27.174l5.827,65.268c.667,1.273,6.7,13.261.051,18.006l1.192,8.241Z" transform="translate(-187.596 -230.842)" fill="#2f2e41"/>
    <path id="Path_684" data-name="Path 684" d="M325.1,364.441c-6.773,0-15.774-2.394-21.284-13.429l-.108-.217,13.574-28.774a15.776,15.776,0,0,1,28.828,12.805L334.371,362.96l-.2.076A29.346,29.346,0,0,1,325.1,364.441Z" transform="translate(-187.596 -230.842)" fill="#3d38f1"/>
    <path id="Path_685" data-name="Path 685" d="M362.7,421.49l-42.792-20.207,5.882-71.762,10.724-13.107,2.077-.445a54.681,54.681,0,0,1,28.73,1.591l.2.068,17.614,37.577c.111.188,12.813,22.615-4.747,34.439Z" transform="translate(-187.596 -230.842)" fill="#3d38f1"/>
    <path id="Path_686" data-name="Path 686" d="M421.527,398.62a10.517,10.517,0,0,0-1.475.756L374.96,378.749,373.8,366.759l-18.324-.619-.015,21.426a8,8,0,0,0,5.755,7.683l54.148,15.825a10.5,10.5,0,1,0,6.16-12.454Z" transform="translate(-187.596 -230.842)" fill="#ffb8b8"/>
    <path id="Path_687" data-name="Path 687" d="M366.371,371.876c-5.138,0-10.937-1.777-16.5-7.343l-.172-.171,3.761-31.592a15.776,15.776,0,0,1,31.4,3.014l-2.22,30.4-.17.136C382.358,366.409,375.382,371.876,366.371,371.876Z" transform="translate(-187.596 -230.842)" fill="#3d38f1"/>
    <circle id="Ellipse_15" data-name="Ellipse 15" cx="28.693" cy="28.693" r="28.693" transform="translate(128.408 58.227) rotate(-61.337)" fill="#ffb8b8"/>
    <path id="Path_688" data-name="Path 688" d="M384.147,262.451c-1.424-8.281-8.071-15.146-15.99-17.954s-16.85-1.9-24.6,1.339a40.852,40.852,0,0,0-3.783,1.819c-2.834-5.4-9.784-8.536-16.14-8.2-7.679.409-14.613,4.471-21.282,8.3s-13.825,7.639-21.513,7.461c-13.893-.322-24.229-13.2-37.588-17.03a30.061,30.061,0,0,0-33.083,45.881c5.7-10.215,19.086-13.665,30.7-12.275s22.44,6.482,33.819,9.194,24.558,2.6,33.372-5.1c5-4.362,7.936-10.6,12.288-15.606,2.944-3.388,7.136-6.248,11.418-6.921a34.654,34.654,0,0,0-9.378,13.911c-3.434,9.757-1.6,21.472,5.526,28.971,7.637,8.04,19.624,10.183,30.712,10.053l.232-.236c-3.395-5.082-6.074-12.128-2.336-16.963,3.69-4.773,10.967-4.07,16.618-6.182C381.005,279.978,385.57,270.732,384.147,262.451Z" transform="translate(-187.596 -230.842)" fill="#2f2e41"/>
    <path id="Path_689" data-name="Path 689" d="M461.6,669.158h-273a1,1,0,0,1,0-2h273a1,1,0,1,1,0,2Z" transform="translate(-187.596 -230.842)" fill="#ccc"/>
    <path id="Path_155" data-name="Path 155" d="M557.486,325.212c-1.252,0-2.265,1.63-2.262,3.631s1.014,3.613,2.262,3.617h106.87c1.252,0,2.265-1.63,2.262-3.631s-1.014-3.613-2.262-3.617Z" transform="translate(-187.596 -230.842)" fill="#fff"/>
    <path id="Path_156" data-name="Path 156" d="M557.486,346.212c-1.252,0-2.265,1.63-2.262,3.631s1.014,3.613,2.262,3.617h106.87c1.252,0,2.265-1.63,2.262-3.631s-1.014-3.613-2.262-3.617Z" transform="translate(-187.596 -230.842)" fill="#fff"/>
    <path id="Path_157" data-name="Path 157" d="M557.486,366.958c-1.252,0-2.265,1.63-2.262,3.631s1.014,3.613,2.262,3.617h45.986c1.252,0,2.265-1.63,2.262-3.631s-1.014-3.613-2.262-3.617Z" transform="translate(-187.596 -230.842)" fill="#fff"/>
    <circle id="Ellipse_16" data-name="Ellipse 16" cx="29" cy="29" r="29" transform="translate(286.628 89.592)" fill="#fff"/>
  </g>
</svg>
