<?xml version="1.0" encoding="UTF-8"?>
<svg id="Layer_2" data-name="Layer 2" xmlns="http://www.w3.org/2000/svg" viewBox="0 0 595.28 459.33">
  <defs>
    <style>
      .cls-1, .cls-2 {
        fill: #fff;
      }

      .cls-3 {
        fill: #4c57a6;
      }

      .cls-2 {
        font-family: Poppins-Regular, Poppins;
        font-size: 33.34px;
      }
    </style>
  </defs>
  <g id="Layer_1-2" data-name="Layer 1">
    <rect class="cls-3" width="595.28" height="459.33"/>
    <g>
      <g>
        <g>
          <path class="cls-1" d="m193.2,211.33h-7.94l-.61,1.22.59-1.22h-14.68c2.87.44,12.82,2.07,12.08,5.26l-18.81,37.86-6.43-39.69c-.33-2.05-2.02-3.44-4.17-3.44h-26.26c2.95.45,15.23,2.65,15.89,6.12v-.05s10.06,50.14,10.06,50.14h17.25l26.59-49.48c1.76-3.27-.08-6.74-3.56-6.74Z"/>
          <path class="cls-1" d="m221.14,220.06l.62-3.73c.46-2.76-1.4-5-4.16-5h-9.21l-9.41,56.21h14.21l4.69-28c.87-5.21,2.62-8.86,5.23-10.96,2.62-2.1,6.16-3.15,10.62-3.15h3.75l2.5-14.92c-3.79,0-7.3.85-10.52,2.54-3.23,1.69-6,4.03-8.33,7Z"/>
          <path class="cls-1" d="m289.01,214.02c-3.99-2.4-8.7-3.6-14.11-3.6s-10.52,1.2-15.32,3.6c-4.8,2.4-8.84,5.8-12.11,10.2-3.27,4.4-5.39,9.47-6.35,15.22s-.58,10.82,1.16,15.22c1.73,4.4,4.56,7.8,8.49,10.2,3.93,2.4,8.6,3.6,14.01,3.6s10.63-1.2,15.47-3.6c4.83-2.4,8.92-5.8,12.26-10.2,3.34-4.4,5.49-9.47,6.46-15.22s.54-10.82-1.26-15.22c-1.8-4.4-4.7-7.8-8.69-10.2Zm-8.22,34.55c-1.77,2.5-3.9,4.38-6.37,5.63-2.48,1.25-5,1.88-7.57,1.88-4.06,0-7.19-1.44-9.37-4.31-2.19-2.87-2.84-6.98-1.94-12.33.89-5.34,2.95-9.45,6.17-12.33,3.22-2.87,6.86-4.31,10.92-4.31s7.25,1.44,9.58,4.31c2.32,2.88,3.04,6.99,2.15,12.33-.6,3.59-1.79,6.63-3.56,9.13Z"/>
          <path class="cls-1" d="m353.75,214.02c-4-2.4-8.7-3.6-14.11-3.6s-10.52,1.2-15.32,3.6c-4.8,2.4-8.83,5.8-12.11,10.2-3.27,4.4-5.39,9.47-6.35,15.22s-.58,10.82,1.15,15.22c1.73,4.4,4.56,7.8,8.49,10.2,3.93,2.4,8.6,3.6,14.01,3.6s10.63-1.2,15.47-3.6c4.83-2.4,8.92-5.8,12.26-10.2,3.34-4.4,5.49-9.47,6.46-15.22s.54-10.82-1.26-15.22c-1.8-4.4-4.7-7.8-8.69-10.2Zm-8.22,34.55c-1.77,2.5-3.9,4.38-6.37,5.63-2.48,1.25-5,1.88-7.57,1.88-4.06,0-7.18-1.44-9.37-4.31-2.19-2.87-2.84-6.98-1.94-12.33.89-5.34,2.95-9.45,6.17-12.33,3.22-2.87,6.86-4.31,10.92-4.31s7.25,1.44,9.58,4.31c2.32,2.88,3.04,6.99,2.15,12.33-.6,3.59-1.79,6.63-3.56,9.13Z"/>
          <path class="cls-1" d="m464.43,216.86c-3.52-4.23-8.73-6.34-15.63-6.34-4.06,0-8,.98-11.81,2.94-3.81,1.96-6.9,4.57-9.27,7.81-1.32-3.45-3.54-6.1-6.68-7.97-3.14-1.86-6.91-2.79-11.3-2.79-3.45,0-6.73.68-9.83,2.03-3.1,1.35-5.76,3.21-7.99,5.58l.21-1.27c.51-3.05-1.55-5.53-4.61-5.53h-26.4c3.76.53,16.98,2.4,16.78,5.65l-8.47,50.57h14.21l5.2-31.05c.74-4.4,2.43-7.76,5.09-10.1,2.66-2.33,5.95-3.5,9.87-3.5s6.7,1.17,8.55,3.5c1.84,2.33,2.39,5.7,1.66,10.1l-5.2,31.05h14.21l5.2-31.05c.74-4.4,2.43-7.76,5.09-10.1,2.66-2.33,5.91-3.5,9.77-3.5s6.7,1.17,8.55,3.5c1.84,2.33,2.39,5.7,1.66,10.1l-5.2,31.05h14.21l5.52-32.98c1.27-7.58.14-13.48-3.38-17.71Z"/>
        </g>
        <g>
          <path class="cls-1" d="m351.14,161.25h-39.52c-2.89,0-5.24-2.34-5.24-5.24s2.34-5.24,5.24-5.24h39.52c2.89,0,5.24,2.34,5.24,5.24s-2.34,5.24-5.24,5.24Z"/>
          <path class="cls-1" d="m337.14,183.34h-67.02c-15.21,0-27.58-12.37-27.58-27.58s12.37-27.58,27.58-27.58c12.23,0,22.83,7.86,26.39,19.56.83,2.75-.72,5.65-3.46,6.49-2.75.84-5.65-.72-6.49-3.46-2.21-7.28-8.82-12.18-16.44-12.18-9.47,0-17.18,7.71-17.18,17.18s7.71,17.18,17.18,17.18h67.02c2.87,0,5.2,2.33,5.2,5.2s-2.33,5.2-5.2,5.2Z"/>
        </g>
      </g>
      <text class="cls-2" transform="translate(177.31 322.81)"><tspan x="0" y="0">ready . set . go</tspan></text>
    </g>
  </g>
</svg>