<svg xmlns="http://www.w3.org/2000/svg" width="9.709" height="8.631" viewBox="0 0 9.709 8.631">
  <path id="Icon_ionic-ios-speedometer" data-name="Icon ionic-ios-speedometer" d="M7.1,4.5A4.945,4.945,0,0,0,2.25,9.532,5.124,5.124,0,0,0,3.47,12.87c.024.027.046.054.069.079a.533.533,0,0,0,.8,0,3.662,3.662,0,0,1,5.522,0,.533.533,0,0,0,.8,0l.069-.079a5.124,5.124,0,0,0,1.22-3.338A4.945,4.945,0,0,0,7.1,4.5ZM6.8,5.532a.3.3,0,1,1,.607,0v.809a.3.3,0,1,1-.607,0ZM4.027,9.847h-.78a.315.315,0,0,1,0-.629h.78a.315.315,0,0,1,0,.629ZM5.143,7.5h0a.3.3,0,0,1-.429,0l-.553-.571a.326.326,0,0,1,0-.445h0a.3.3,0,0,1,.429,0l.553.573A.323.323,0,0,1,5.143,7.5Zm3.481.775-1.029,1.7a.685.685,0,0,1-.152.157.638.638,0,0,1-.91-.157.693.693,0,0,1,.152-.944L8.321,7.959a.215.215,0,0,1,.254,0A.231.231,0,0,1,8.624,8.274ZM9.5,7.5a.3.3,0,0,1-.429,0h0a.326.326,0,0,1,0-.445l.553-.573a.3.3,0,0,1,.429,0h0a.326.326,0,0,1,0,.445Zm1.467,2.349h-.78a.315.315,0,0,1,0-.629h.78a.315.315,0,0,1,0,.629Z" transform="translate(-2.25 -4.5)" fill="#929aa5"/>
</svg>
