<svg id="Group_8996" data-name="Group 8996" xmlns="http://www.w3.org/2000/svg" width="709.532" height="558.594" viewBox="0 0 709.532 558.594">
  <rect id="Rectangle_70" data-name="Rectangle 70" width="643.862" height="412.358" transform="translate(0.275 0.365)" fill="#e6e6e6"/>
  <rect id="Rectangle_71" data-name="Rectangle 71" width="607.039" height="336.243" transform="translate(18.686 52.085)" fill="#fff"/>
  <rect id="Rectangle_72" data-name="Rectangle 72" width="643.862" height="27.354" fill="#3d38f1"/>
  <circle id="Ellipse_21" data-name="Ellipse 21" cx="5.07" cy="5.07" r="5.07" transform="translate(15.257 8.915)" fill="#fff"/>
  <circle id="Ellipse_22" data-name="Ellipse 22" cx="5.07" cy="5.07" r="5.07" transform="translate(34.501 8.915)" fill="#fff"/>
  <circle id="Ellipse_23" data-name="Ellipse 23" cx="5.07" cy="5.07" r="5.07" transform="translate(53.744 8.915)" fill="#fff"/>
  <rect id="Rectangle_73" data-name="Rectangle 73" width="155.981" height="266.467" transform="translate(73.844 86.973)" fill="#e6e6e6"/>
  <rect id="Rectangle_74" data-name="Rectangle 74" width="129.984" height="73.348" transform="translate(256.75 86.973)" fill="#3d38f1"/>
  <rect id="Rectangle_75" data-name="Rectangle 75" width="129.984" height="78.919" transform="translate(256.75 180.747)" fill="#e6e6e6"/>
  <rect id="Rectangle_76" data-name="Rectangle 76" width="129.984" height="73.348" transform="translate(256.75 280.092)" fill="#e6e6e6"/>
  <rect id="Rectangle_77" data-name="Rectangle 77" width="155.981" height="116.125" transform="translate(414.587 86.973)" fill="#e6e6e6"/>
  <rect id="Rectangle_78" data-name="Rectangle 78" width="155.981" height="116.125" transform="translate(414.587 237.315)" fill="#e6e6e6"/>
  <path id="Path_708" data-name="Path 708" d="M755.712,382.143v-25a33.5,33.5,0,1,1,67,0v25a4.505,4.505,0,0,1-4.5,4.5h-58A4.505,4.505,0,0,1,755.712,382.143Z" transform="translate(-245.234 -170.703)" fill="#2f2e41"/>
  <path id="Path_709" data-name="Path 709" d="M593.514,536.786l-11.816,3.27-18.236-44.018,17.439-4.826Z" fill="#ffb8b8"/>
  <path id="Path_710" data-name="Path 710" d="M819.385,708.282h23.644v14.887H804.5a14.887,14.887,0,0,1,14.887-14.887Z" transform="translate(-406.293 74.945) rotate(-15.47)" fill="#2f2e41"/>
  <path id="Path_711" data-name="Path 711" d="M470.328,545.875h-12.26l-5.833-47.288h18.1Z" fill="#ffb8b8"/>
  <path id="Path_712" data-name="Path 712" d="M449.311,542.372h23.644v14.887H434.424A14.887,14.887,0,0,1,449.311,542.372Z" fill="#2f2e41"/>
  <path id="Path_713" data-name="Path 713" d="M700.778,452.3a10.056,10.056,0,0,0,15.392.917l32.59,14.658L745.8,449.545,715.3,438.436A10.11,10.11,0,0,0,700.778,452.3Z" transform="translate(-245.234 -170.703)" fill="#ffb8b8"/>
  <path id="Path_714" data-name="Path 714" d="M768.492,562.539c-10.239,0-20.839-1.525-29.749-6.062a38.415,38.415,0,0,1-19.709-23.565c-4.642-14.7,1.211-29.14,6.871-43.105,3.508-8.654,6.821-16.827,7.68-24.884l.3-2.86c1.339-12.848,2.5-23.943,8.9-28.105,3.318-2.157,7.78-2.28,13.641-.377l55.045,17.881-2.024,104.49-.334.112C808.823,556.161,789.418,562.539,768.492,562.539Z" transform="translate(-245.234 -170.703)" fill="#2f2e41"/>
  <path id="Path_715" data-name="Path 715" d="M755.462,401.051s27-8,48-5c0,0-12,66-8,88s-69.5,8.5-54.5-12.5l5-25s-10-10-1-22Z" transform="translate(-245.234 -170.703)" fill="#3d38f1"/>
  <path id="Path_716" data-name="Path 716" d="M742.182,560.558l-33.276-6.239,11.618-89.407c.781-2.5,18.778-59.143,26.952-62.208a139.515,139.515,0,0,1,18.166-5.047l1.184-.237-6.672,10.009-26.564,63.654Z" transform="translate(-245.234 -170.703)" fill="#2f2e41"/>
  <path id="Path_717" data-name="Path 717" d="M724.843,705.622l-42.995-7.166,24.128-98.524L741.88,465.2l.354,2.393c.028.178,3.382,17.78,53.151,9.97l.438-.068.121.426L856.1,690.454l-48.99,8.165L762.422,543.551Z" transform="translate(-245.234 -170.703)" fill="#2f2e41"/>
  <path id="Path_718" data-name="Path 718" d="M784.436,577.29l.027-.756c.03-.84,2.988-84.373,2-117.967-.991-33.709,9.922-62.9,10.032-63.192l.089-.234.241-.069c14.12-4.034,26.369,8.005,26.491,8.127l.172.172-4.021,33.176,17.216,120.642Z" transform="translate(-245.234 -170.703)" fill="#2f2e41"/>
  <circle id="Ellipse_24" data-name="Ellipse 24" cx="24.561" cy="24.561" r="24.561" transform="translate(512.534 166.236)" fill="#ffb8b8"/>
  <path id="Path_719" data-name="Path 719" d="M747.787,359.143a26.53,26.53,0,0,1,26.5-26.5h5a26.53,26.53,0,0,1,26.5,26.5v.5H795.22l-3.6-10.092-.721,10.092h-5.461l-1.818-5.092-.364,5.092H747.787Z" transform="translate(-245.234 -170.703)" fill="#2f2e41"/>
  <path id="Path_720" data-name="Path 720" d="M779.911,389.454a4.433,4.433,0,0,1-.352-4.707c5.3-10.078,12.717-28.7,2.87-40.185l-.708-.825h28.587v42.921l-25.969,4.582a4.594,4.594,0,0,1-.8.07,4.482,4.482,0,0,1-3.631-1.856Z" transform="translate(-245.234 -170.703)" fill="#2f2e41"/>
  <path id="Path_721" data-name="Path 721" d="M664.814,212.249a135.02,135.02,0,1,0,7.655,199.4L838.087,551.4a12.442,12.442,0,1,0,16.066-19l-.018-.016L688.516,392.634a135.027,135.027,0,0,0-23.7-180.385ZM654.137,379.177A101.158,101.158,0,1,1,642.06,236.629h0a101.158,101.158,0,0,1,12.077,142.548Z" transform="translate(-245.234 -170.703)" fill="#3f3d56"/>
  <path id="Path_722" data-name="Path 722" d="M511.589,391.254a101.163,101.163,0,0,1-17.166-135.989q-2.9,2.922-5.609,6.12A101.158,101.158,0,1,0,643.438,391.856q2.7-3.2,5.089-6.559a101.163,101.163,0,0,1-136.938,5.957Z" transform="translate(-245.234 -170.703)" opacity="0.3"/>
  <path id="Path_723" data-name="Path 723" d="M790.214,495.239a10.056,10.056,0,0,0,12.424-9.133l34.433-9.557-14-12.2-30.552,10.947a10.11,10.11,0,0,0-2.308,19.946Z" transform="translate(-245.234 -170.703)" fill="#ffb8b8"/>
  <path id="Path_724" data-name="Path 724" d="M804.526,490.18l-2.1-19.906L831.192,454.4,812.44,431.7l3.06-25.5,7.62-3.266.237.3c3.593,4.62,35.105,45.281,35.105,50.307,0,5.163-6.029,20.323-14.276,24.447-7.956,3.978-37.831,11.71-39.1,12.037Z" transform="translate(-245.234 -170.703)" fill="#2f2e41"/>
  <path id="Path_725" data-name="Path 725" d="M953.766,729.3h-381a1,1,0,0,1,0-2h381a1,1,0,0,1,0,2Z" transform="translate(-245.234 -170.703)" fill="#ccc"/>
</svg>
