<svg id="Group_46" data-name="Group 46" xmlns="http://www.w3.org/2000/svg" xmlns:xlink="http://www.w3.org/1999/xlink" width="9.709" height="8.468" viewBox="0 0 9.709 8.468">
  <defs>
    <clipPath id="clip-path">
      <rect id="Rectangle_18" data-name="Rectangle 18" width="9.709" height="8.468" fill="#929aa5"/>
    </clipPath>
  </defs>
  <g id="Group_41" data-name="Group 41" transform="translate(0)">
    <g id="Group_40" data-name="Group 40" clip-path="url(#clip-path)">
      <path id="Path_3" data-name="Path 3" d="M4.478,4.623H1.508c0,.507-.008,1,.009,1.5,0,.067.115.144.191.194a1.167,1.167,0,0,1,.5,1.3,1.121,1.121,0,0,1-1.08.84A1.1,1.1,0,0,1,.047,7.62,1.133,1.133,0,0,1,.584,6.3.293.293,0,0,0,.755,6q-.009-1.778,0-3.556a.293.293,0,0,0-.178-.294A1.15,1.15,0,0,1,.062.769,1.121,1.121,0,0,1,1.28,0a1.145,1.145,0,0,1,.965,1.085A1.078,1.078,0,0,1,1.7,2.126.355.355,0,0,0,1.5,2.5c.009.434,0,.868,0,1.321H4.461V2.244a1.185,1.185,0,0,1-.689-1.4A1.113,1.113,0,0,1,5.928.814a1.115,1.115,0,0,1-.479,1.3.411.411,0,0,0-.223.437c.009.416,0,.832,0,1.291H5.82c.53,0,1.059,0,1.589,0a.729.729,0,0,0,.576-.221A.779.779,0,0,0,8.2,3.022c0-.065,0-.13,0-.194A.769.769,0,0,0,7.86,2,1.055,1.055,0,0,1,7.547.706,1.1,1.1,0,0,1,8.711,0a1.127,1.127,0,0,1,.969.89,1.164,1.164,0,0,1-.506,1.233c-.068.044-.139.083-.221.132,0,.283.007.57,0,.856a1.5,1.5,0,0,1-1.5,1.5c-.646.005-1.293,0-1.939,0h-.29c0,.513-.009,1,.009,1.49,0,.074.118.16.2.213a1.17,1.17,0,0,1,.452,1.428,1.114,1.114,0,0,1-1.27.692,1.15,1.15,0,0,1-.888-1.164,1.105,1.105,0,0,1,.58-.969A.281.281,0,0,0,4.481,6c-.01-.452,0-.9,0-1.38" transform="translate(0.001 0.006)" fill="#929aa5"/>
    </g>
  </g>
</svg>
