<svg xmlns="http://www.w3.org/2000/svg" width="7.525" height="8.6" viewBox="0 0 7.525 8.6">
  <path id="Icon_awesome-calendar-alt" data-name="Icon awesome-calendar-alt" d="M0,7.794A.806.806,0,0,0,.806,8.6H6.719a.806.806,0,0,0,.806-.806V3.225H0ZM5.375,4.5a.2.2,0,0,1,.2-.2h.672a.2.2,0,0,1,.2.2v.672a.2.2,0,0,1-.2.2H5.577a.2.2,0,0,1-.2-.2Zm0,2.15a.2.2,0,0,1,.2-.2h.672a.2.2,0,0,1,.2.2v.672a.2.2,0,0,1-.2.2H5.577a.2.2,0,0,1-.2-.2ZM3.225,4.5a.2.2,0,0,1,.2-.2H4.1a.2.2,0,0,1,.2.2v.672a.2.2,0,0,1-.2.2H3.427a.2.2,0,0,1-.2-.2Zm0,2.15a.2.2,0,0,1,.2-.2H4.1a.2.2,0,0,1,.2.2v.672a.2.2,0,0,1-.2.2H3.427a.2.2,0,0,1-.2-.2ZM1.075,4.5a.2.2,0,0,1,.2-.2h.672a.2.2,0,0,1,.2.2v.672a.2.2,0,0,1-.2.2H1.277a.2.2,0,0,1-.2-.2Zm0,2.15a.2.2,0,0,1,.2-.2h.672a.2.2,0,0,1,.2.2v.672a.2.2,0,0,1-.2.2H1.277a.2.2,0,0,1-.2-.2ZM6.719,1.075H5.912V.269A.27.27,0,0,0,5.644,0H5.106a.27.27,0,0,0-.269.269v.806H2.688V.269A.27.27,0,0,0,2.419,0H1.881a.27.27,0,0,0-.269.269v.806H.806A.806.806,0,0,0,0,1.881v.806H7.525V1.881A.806.806,0,0,0,6.719,1.075Z" fill="#929aa5"/>
</svg>
